<?xml version="1.0" encoding="utf-8" standalone="no"?>
<!DOCTYPE svg PUBLIC "-//W3C//DTD SVG 1.1//EN"
  "http://www.w3.org/Graphics/SVG/1.1/DTD/svg11.dtd">
<svg xmlns:xlink="http://www.w3.org/1999/xlink" width="180pt" height="374.4pt" viewBox="0 0 180 374.4" xmlns="http://www.w3.org/2000/svg" version="1.1">
 <metadata>
  <rdf:RDF xmlns:dc="http://purl.org/dc/elements/1.1/" xmlns:cc="http://creativecommons.org/ns#" xmlns:rdf="http://www.w3.org/1999/02/22-rdf-syntax-ns#">
   <cc:Work>
    <dc:type rdf:resource="http://purl.org/dc/dcmitype/StillImage"/>
    <dc:date>2025-07-22T15:29:35.502885</dc:date>
    <dc:format>image/svg+xml</dc:format>
    <dc:creator>
     <cc:Agent>
      <dc:title>Matplotlib v3.9.2, https://matplotlib.org/</dc:title>
     </cc:Agent>
    </dc:creator>
   </cc:Work>
  </rdf:RDF>
 </metadata>
 <defs>
  <style type="text/css">*{stroke-linejoin: round; stroke-linecap: butt}</style>
 </defs>
 <g id="figure_1">
  <g id="patch_1">
   <path d="M 0 374.4 
L 180 374.4 
L 180 0 
L 0 0 
z
" style="fill: #ffffff"/>
  </g>
  <g id="axes_1">
   <g id="patch_2">
    <path d="M 102.368 343.44 
L 157.32 343.44 
L 157.32 51.4368 
L 102.368 51.4368 
z
" style="fill: #ffffff"/>
   </g>
   <g id="patch_3">
    <path d="M 118.8536 715.080436 
L 140.8344 715.080436 
L 140.8344 246.193856 
L 118.8536 246.193856 
z
" clip-path="url(#p59eb7cd8f8)" style="fill: #808080; stroke: #000000; stroke-linejoin: miter"/>
   </g>
   <g id="PathCollection_1">
    <defs>
     <path id="m642ede96dd" d="M 0 1.581139 
C 0.419323 1.581139 0.821528 1.41454 1.118034 1.118034 
C 1.41454 0.821528 1.581139 0.419323 1.581139 0 
C 1.581139 -0.419323 1.41454 -0.821528 1.118034 -1.118034 
C 0.821528 -1.41454 0.419323 -1.581139 0 -1.581139 
C -0.419323 -1.581139 -0.821528 -1.41454 -1.118034 -1.118034 
C -1.41454 -0.821528 -1.581139 -0.419323 -1.581139 0 
C -1.581139 0.419323 -1.41454 0.821528 -1.118034 1.118034 
C -0.821528 1.41454 -0.419323 1.581139 0 1.581139 
z
" style="stroke: #000000; stroke-opacity: 0.2"/>
    </defs>
    <g clip-path="url(#p59eb7cd8f8)">
     <use xlink:href="#m642ede96dd" x="134.192575" y="197.620309" style="fill-opacity: 0.2; stroke: #000000; stroke-opacity: 0.2"/>
     <use xlink:href="#m642ede96dd" x="129.818721" y="210.409073" style="fill-opacity: 0.2; stroke: #000000; stroke-opacity: 0.2"/>
     <use xlink:href="#m642ede96dd" x="122.148825" y="277.020387" style="fill-opacity: 0.2; stroke: #000000; stroke-opacity: 0.2"/>
     <use xlink:href="#m642ede96dd" x="135.9954" y="327.971564" style="fill-opacity: 0.2; stroke: #000000; stroke-opacity: 0.2"/>
     <use xlink:href="#m642ede96dd" x="129.755834" y="324.789273" style="fill-opacity: 0.2; stroke: #000000; stroke-opacity: 0.2"/>
     <use xlink:href="#m642ede96dd" x="130.92269" y="221.431098" style="fill-opacity: 0.2; stroke: #000000; stroke-opacity: 0.2"/>
     <use xlink:href="#m642ede96dd" x="122.134375" y="203.440833" style="fill-opacity: 0.2; stroke: #000000; stroke-opacity: 0.2"/>
     <use xlink:href="#m642ede96dd" x="126.932939" y="386.703806" style="fill-opacity: 0.2; stroke: #000000; stroke-opacity: 0.2"/>
     <use xlink:href="#m642ede96dd" x="126.135182" y="288.476455" style="fill-opacity: 0.2; stroke: #000000; stroke-opacity: 0.2"/>
     <use xlink:href="#m642ede96dd" x="135.344131" y="288.79182" style="fill-opacity: 0.2; stroke: #000000; stroke-opacity: 0.2"/>
     <use xlink:href="#m642ede96dd" x="126.487869" y="294.957738" style="fill-opacity: 0.2; stroke: #000000; stroke-opacity: 0.2"/>
     <use xlink:href="#m642ede96dd" x="136.617865" y="206.91381" style="fill-opacity: 0.2; stroke: #000000; stroke-opacity: 0.2"/>
     <use xlink:href="#m642ede96dd" x="135.194374" y="246.282843" style="fill-opacity: 0.2; stroke: #000000; stroke-opacity: 0.2"/>
     <use xlink:href="#m642ede96dd" x="125.855799" y="132.348179" style="fill-opacity: 0.2; stroke: #000000; stroke-opacity: 0.2"/>
     <use xlink:href="#m642ede96dd" x="125.772523" y="262.2257" style="fill-opacity: 0.2; stroke: #000000; stroke-opacity: 0.2"/>
     <use xlink:href="#m642ede96dd" x="132.603645" y="215.054321" style="fill-opacity: 0.2; stroke: #000000; stroke-opacity: 0.2"/>
     <use xlink:href="#m642ede96dd" x="137.285889" y="177.662519" style="fill-opacity: 0.2; stroke: #000000; stroke-opacity: 0.2"/>
     <use xlink:href="#m642ede96dd" x="129.802557" y="225.659951" style="fill-opacity: 0.2; stroke: #000000; stroke-opacity: 0.2"/>
     <use xlink:href="#m642ede96dd" x="123.685313" y="204.022" style="fill-opacity: 0.2; stroke: #000000; stroke-opacity: 0.2"/>
     <use xlink:href="#m642ede96dd" x="133.573115" y="68.013233" style="fill-opacity: 0.2; stroke: #000000; stroke-opacity: 0.2"/>
     <use xlink:href="#m642ede96dd" x="127.542915" y="218.06836" style="fill-opacity: 0.2; stroke: #000000; stroke-opacity: 0.2"/>
     <use xlink:href="#m642ede96dd" x="135.842242" y="238.990398" style="fill-opacity: 0.2; stroke: #000000; stroke-opacity: 0.2"/>
     <use xlink:href="#m642ede96dd" x="131.995625" y="216.970426" style="fill-opacity: 0.2; stroke: #000000; stroke-opacity: 0.2"/>
     <use xlink:href="#m642ede96dd" x="134.974848" y="207.287926" style="fill-opacity: 0.2; stroke: #000000; stroke-opacity: 0.2"/>
     <use xlink:href="#m642ede96dd" x="134.923454" y="213.946095" style="fill-opacity: 0.2; stroke: #000000; stroke-opacity: 0.2"/>
     <use xlink:href="#m642ede96dd" x="123.178371" y="303.058349" style="fill-opacity: 0.2; stroke: #000000; stroke-opacity: 0.2"/>
     <use xlink:href="#m642ede96dd" x="125.765649" y="180.016811" style="fill-opacity: 0.2; stroke: #000000; stroke-opacity: 0.2"/>
     <use xlink:href="#m642ede96dd" x="127.799902" y="243.221242" style="fill-opacity: 0.2; stroke: #000000; stroke-opacity: 0.2"/>
     <use xlink:href="#m642ede96dd" x="130.076867" y="268.535114" style="fill-opacity: 0.2; stroke: #000000; stroke-opacity: 0.2"/>
     <use xlink:href="#m642ede96dd" x="137.471774" y="284.38372" style="fill-opacity: 0.2; stroke: #000000; stroke-opacity: 0.2"/>
     <use xlink:href="#m642ede96dd" x="137.58846" y="275.378509" style="fill-opacity: 0.2; stroke: #000000; stroke-opacity: 0.2"/>
     <use xlink:href="#m642ede96dd" x="126.398048" y="150.896837" style="fill-opacity: 0.2; stroke: #000000; stroke-opacity: 0.2"/>
     <use xlink:href="#m642ede96dd" x="135.079645" y="193.501904" style="fill-opacity: 0.2; stroke: #000000; stroke-opacity: 0.2"/>
     <use xlink:href="#m642ede96dd" x="126.255194" y="219.176145" style="fill-opacity: 0.2; stroke: #000000; stroke-opacity: 0.2"/>
     <use xlink:href="#m642ede96dd" x="137.099477" y="138.60632" style="fill-opacity: 0.2; stroke: #000000; stroke-opacity: 0.2"/>
     <use xlink:href="#m642ede96dd" x="124.561517" y="214.920015" style="fill-opacity: 0.2; stroke: #000000; stroke-opacity: 0.2"/>
     <use xlink:href="#m642ede96dd" x="130.010545" y="267.110121" style="fill-opacity: 0.2; stroke: #000000; stroke-opacity: 0.2"/>
     <use xlink:href="#m642ede96dd" x="132.286269" y="301.926061" style="fill-opacity: 0.2; stroke: #000000; stroke-opacity: 0.2"/>
     <use xlink:href="#m642ede96dd" x="123.192056" y="351.290063" style="fill-opacity: 0.2; stroke: #000000; stroke-opacity: 0.2"/>
     <use xlink:href="#m642ede96dd" x="130.845985" y="280.129143" style="fill-opacity: 0.2; stroke: #000000; stroke-opacity: 0.2"/>
     <use xlink:href="#m642ede96dd" x="132.996638" y="184.338729" style="fill-opacity: 0.2; stroke: #000000; stroke-opacity: 0.2"/>
     <use xlink:href="#m642ede96dd" x="133.286506" y="168.926102" style="fill-opacity: 0.2; stroke: #000000; stroke-opacity: 0.2"/>
     <use xlink:href="#m642ede96dd" x="125.836412" y="170.874286" style="fill-opacity: 0.2; stroke: #000000; stroke-opacity: 0.2"/>
     <use xlink:href="#m642ede96dd" x="122.781883" y="261.023947" style="fill-opacity: 0.2; stroke: #000000; stroke-opacity: 0.2"/>
     <use xlink:href="#m642ede96dd" x="122.35221" y="289.034625" style="fill-opacity: 0.2; stroke: #000000; stroke-opacity: 0.2"/>
     <use xlink:href="#m642ede96dd" x="134.749831" y="261.864584" style="fill-opacity: 0.2; stroke: #000000; stroke-opacity: 0.2"/>
     <use xlink:href="#m642ede96dd" x="135.114228" y="166.761337" style="fill-opacity: 0.2; stroke: #000000; stroke-opacity: 0.2"/>
     <use xlink:href="#m642ede96dd" x="121.927286" y="158.219839" style="fill-opacity: 0.2; stroke: #000000; stroke-opacity: 0.2"/>
     <use xlink:href="#m642ede96dd" x="130.880766" y="301.134554" style="fill-opacity: 0.2; stroke: #000000; stroke-opacity: 0.2"/>
     <use xlink:href="#m642ede96dd" x="129.306971" y="353.726252" style="fill-opacity: 0.2; stroke: #000000; stroke-opacity: 0.2"/>
     <use xlink:href="#m642ede96dd" x="122.499434" y="217.975239" style="fill-opacity: 0.2; stroke: #000000; stroke-opacity: 0.2"/>
     <use xlink:href="#m642ede96dd" x="123.742428" y="319.465421" style="fill-opacity: 0.2; stroke: #000000; stroke-opacity: 0.2"/>
     <use xlink:href="#m642ede96dd" x="125.820302" y="314.79538" style="fill-opacity: 0.2; stroke: #000000; stroke-opacity: 0.2"/>
     <use xlink:href="#m642ede96dd" x="136.207528" y="310.562797" style="fill-opacity: 0.2; stroke: #000000; stroke-opacity: 0.2"/>
     <use xlink:href="#m642ede96dd" x="127.344217" y="387.811616" style="fill-opacity: 0.2; stroke: #000000; stroke-opacity: 0.2"/>
     <use xlink:href="#m642ede96dd" x="122.492546" y="188.329753" style="fill-opacity: 0.2; stroke: #000000; stroke-opacity: 0.2"/>
     <use xlink:href="#m642ede96dd" x="125.184313" y="244.398782" style="fill-opacity: 0.2; stroke: #000000; stroke-opacity: 0.2"/>
     <use xlink:href="#m642ede96dd" x="137.608568" y="205.242246" style="fill-opacity: 0.2; stroke: #000000; stroke-opacity: 0.2"/>
     <use xlink:href="#m642ede96dd" x="136.047679" y="300.347161" style="fill-opacity: 0.2; stroke: #000000; stroke-opacity: 0.2"/>
     <use xlink:href="#m642ede96dd" x="124.352476" y="335.825025" style="fill-opacity: 0.2; stroke: #000000; stroke-opacity: 0.2"/>
     <use xlink:href="#m642ede96dd" x="122.484647" y="149.199047" style="fill-opacity: 0.2; stroke: #000000; stroke-opacity: 0.2"/>
     <use xlink:href="#m642ede96dd" x="134.519658" y="337.935539" style="fill-opacity: 0.2; stroke: #000000; stroke-opacity: 0.2"/>
     <use xlink:href="#m642ede96dd" x="134.002581" y="251.000061" style="fill-opacity: 0.2; stroke: #000000; stroke-opacity: 0.2"/>
     <use xlink:href="#m642ede96dd" x="138.062058" y="297.519393" style="fill-opacity: 0.2; stroke: #000000; stroke-opacity: 0.2"/>
     <use xlink:href="#m642ede96dd" x="130.149249" y="252.733019" style="fill-opacity: 0.2; stroke: #000000; stroke-opacity: 0.2"/>
     <use xlink:href="#m642ede96dd" x="126.769255" y="185.304579" style="fill-opacity: 0.2; stroke: #000000; stroke-opacity: 0.2"/>
     <use xlink:href="#m642ede96dd" x="129.594027" y="285.903293" style="fill-opacity: 0.2; stroke: #000000; stroke-opacity: 0.2"/>
     <use xlink:href="#m642ede96dd" x="136.127217" y="259.668767" style="fill-opacity: 0.2; stroke: #000000; stroke-opacity: 0.2"/>
     <use xlink:href="#m642ede96dd" x="131.772733" y="243.726343" style="fill-opacity: 0.2; stroke: #000000; stroke-opacity: 0.2"/>
     <use xlink:href="#m642ede96dd" x="137.182783" y="250.657134" style="fill-opacity: 0.2; stroke: #000000; stroke-opacity: 0.2"/>
     <use xlink:href="#m642ede96dd" x="134.156715" y="420.090043" style="fill-opacity: 0.2; stroke: #000000; stroke-opacity: 0.2"/>
     <use xlink:href="#m642ede96dd" x="134.619036" y="215.406512" style="fill-opacity: 0.2; stroke: #000000; stroke-opacity: 0.2"/>
     <use xlink:href="#m642ede96dd" x="128.738666" y="184.918223" style="fill-opacity: 0.2; stroke: #000000; stroke-opacity: 0.2"/>
     <use xlink:href="#m642ede96dd" x="135.548461" y="250.888989" style="fill-opacity: 0.2; stroke: #000000; stroke-opacity: 0.2"/>
     <use xlink:href="#m642ede96dd" x="129.767479" y="303.880491" style="fill-opacity: 0.2; stroke: #000000; stroke-opacity: 0.2"/>
     <use xlink:href="#m642ede96dd" x="127.183061" y="275.526313" style="fill-opacity: 0.2; stroke: #000000; stroke-opacity: 0.2"/>
     <use xlink:href="#m642ede96dd" x="128.957221" y="205.485049" style="fill-opacity: 0.2; stroke: #000000; stroke-opacity: 0.2"/>
     <use xlink:href="#m642ede96dd" x="125.914866" y="286.38492" style="fill-opacity: 0.2; stroke: #000000; stroke-opacity: 0.2"/>
     <use xlink:href="#m642ede96dd" x="137.21813" y="263.89503" style="fill-opacity: 0.2; stroke: #000000; stroke-opacity: 0.2"/>
     <use xlink:href="#m642ede96dd" x="131.809172" y="263.918424" style="fill-opacity: 0.2; stroke: #000000; stroke-opacity: 0.2"/>
     <use xlink:href="#m642ede96dd" x="133.8643" y="147.069969" style="fill-opacity: 0.2; stroke: #000000; stroke-opacity: 0.2"/>
     <use xlink:href="#m642ede96dd" x="136.153409" y="193.669775" style="fill-opacity: 0.2; stroke: #000000; stroke-opacity: 0.2"/>
     <use xlink:href="#m642ede96dd" x="125.573775" y="241.443005" style="fill-opacity: 0.2; stroke: #000000; stroke-opacity: 0.2"/>
    </g>
   </g>
   <g id="matplotlib.axis_1"/>
   <g id="matplotlib.axis_2">
    <g id="ytick_1">
     <g id="line2d_1">
      <defs>
       <path id="mabaa6feaf3" d="M 0 0 
L -3.5 0 
" style="stroke: #000000; stroke-width: 0.8"/>
      </defs>
      <g>
       <use xlink:href="#mabaa6feaf3" x="102.368" y="343.44" style="stroke: #000000; stroke-width: 0.8"/>
      </g>
     </g>
     <g id="text_1">
      <!-- 70 -->
      <g transform="translate(78.685188 348.808359) scale(0.15 -0.15)">
       <defs>
        <path id="ArialMT-37" d="M 303 3981 
L 303 4522 
L 3269 4522 
L 3269 4084 
Q 2831 3619 2401 2847 
Q 1972 2075 1738 1259 
Q 1569 684 1522 0 
L 944 0 
Q 953 541 1156 1306 
Q 1359 2072 1739 2783 
Q 2119 3494 2547 3981 
L 303 3981 
z
" transform="scale(0.015625)"/>
        <path id="ArialMT-30" d="M 266 2259 
Q 266 3072 433 3567 
Q 600 4063 929 4331 
Q 1259 4600 1759 4600 
Q 2128 4600 2406 4451 
Q 2684 4303 2865 4023 
Q 3047 3744 3150 3342 
Q 3253 2941 3253 2259 
Q 3253 1453 3087 958 
Q 2922 463 2592 192 
Q 2263 -78 1759 -78 
Q 1097 -78 719 397 
Q 266 969 266 2259 
z
M 844 2259 
Q 844 1131 1108 757 
Q 1372 384 1759 384 
Q 2147 384 2411 759 
Q 2675 1134 2675 2259 
Q 2675 3391 2411 3762 
Q 2147 4134 1753 4134 
Q 1366 4134 1134 3806 
Q 844 3388 844 2259 
z
" transform="scale(0.015625)"/>
       </defs>
       <use xlink:href="#ArialMT-37"/>
       <use xlink:href="#ArialMT-30" x="55.615234"/>
      </g>
     </g>
    </g>
    <g id="ytick_2">
     <g id="line2d_2">
      <g>
       <use xlink:href="#mabaa6feaf3" x="102.368" y="290.348509" style="stroke: #000000; stroke-width: 0.8"/>
      </g>
     </g>
     <g id="text_2">
      <!-- 80 -->
      <g transform="translate(78.685188 295.716868) scale(0.15 -0.15)">
       <defs>
        <path id="ArialMT-38" d="M 1131 2484 
Q 781 2613 612 2850 
Q 444 3088 444 3419 
Q 444 3919 803 4259 
Q 1163 4600 1759 4600 
Q 2359 4600 2725 4251 
Q 3091 3903 3091 3403 
Q 3091 3084 2923 2848 
Q 2756 2613 2416 2484 
Q 2838 2347 3058 2040 
Q 3278 1734 3278 1309 
Q 3278 722 2862 322 
Q 2447 -78 1769 -78 
Q 1091 -78 675 323 
Q 259 725 259 1325 
Q 259 1772 486 2073 
Q 713 2375 1131 2484 
z
M 1019 3438 
Q 1019 3113 1228 2906 
Q 1438 2700 1772 2700 
Q 2097 2700 2305 2904 
Q 2513 3109 2513 3406 
Q 2513 3716 2298 3927 
Q 2084 4138 1766 4138 
Q 1444 4138 1231 3931 
Q 1019 3725 1019 3438 
z
M 838 1322 
Q 838 1081 952 856 
Q 1066 631 1291 507 
Q 1516 384 1775 384 
Q 2178 384 2440 643 
Q 2703 903 2703 1303 
Q 2703 1709 2433 1975 
Q 2163 2241 1756 2241 
Q 1359 2241 1098 1978 
Q 838 1716 838 1322 
z
" transform="scale(0.015625)"/>
       </defs>
       <use xlink:href="#ArialMT-38"/>
       <use xlink:href="#ArialMT-30" x="55.615234"/>
      </g>
     </g>
    </g>
    <g id="ytick_3">
     <g id="line2d_3">
      <g>
       <use xlink:href="#mabaa6feaf3" x="102.368" y="237.257018" style="stroke: #000000; stroke-width: 0.8"/>
      </g>
     </g>
     <g id="text_3">
      <!-- 90 -->
      <g transform="translate(78.685188 242.625378) scale(0.15 -0.15)">
       <defs>
        <path id="ArialMT-39" d="M 350 1059 
L 891 1109 
Q 959 728 1153 556 
Q 1347 384 1650 384 
Q 1909 384 2104 503 
Q 2300 622 2425 820 
Q 2550 1019 2634 1356 
Q 2719 1694 2719 2044 
Q 2719 2081 2716 2156 
Q 2547 1888 2255 1720 
Q 1963 1553 1622 1553 
Q 1053 1553 659 1965 
Q 266 2378 266 3053 
Q 266 3750 677 4175 
Q 1088 4600 1706 4600 
Q 2153 4600 2523 4359 
Q 2894 4119 3086 3673 
Q 3278 3228 3278 2384 
Q 3278 1506 3087 986 
Q 2897 466 2520 194 
Q 2144 -78 1638 -78 
Q 1100 -78 759 220 
Q 419 519 350 1059 
z
M 2653 3081 
Q 2653 3566 2395 3850 
Q 2138 4134 1775 4134 
Q 1400 4134 1122 3828 
Q 844 3522 844 3034 
Q 844 2597 1108 2323 
Q 1372 2050 1759 2050 
Q 2150 2050 2401 2323 
Q 2653 2597 2653 3081 
z
" transform="scale(0.015625)"/>
       </defs>
       <use xlink:href="#ArialMT-39"/>
       <use xlink:href="#ArialMT-30" x="55.615234"/>
      </g>
     </g>
    </g>
    <g id="ytick_4">
     <g id="line2d_4">
      <g>
       <use xlink:href="#mabaa6feaf3" x="102.368" y="184.165527" style="stroke: #000000; stroke-width: 0.8"/>
      </g>
     </g>
     <g id="text_4">
      <!-- 100 -->
      <g transform="translate(70.343781 189.533887) scale(0.15 -0.15)">
       <defs>
        <path id="ArialMT-31" d="M 2384 0 
L 1822 0 
L 1822 3584 
Q 1619 3391 1289 3197 
Q 959 3003 697 2906 
L 697 3450 
Q 1169 3672 1522 3987 
Q 1875 4303 2022 4600 
L 2384 4600 
L 2384 0 
z
" transform="scale(0.015625)"/>
       </defs>
       <use xlink:href="#ArialMT-31"/>
       <use xlink:href="#ArialMT-30" x="55.615234"/>
       <use xlink:href="#ArialMT-30" x="111.230469"/>
      </g>
     </g>
    </g>
    <g id="ytick_5">
     <g id="line2d_5">
      <g>
       <use xlink:href="#mabaa6feaf3" x="102.368" y="131.074036" style="stroke: #000000; stroke-width: 0.8"/>
      </g>
     </g>
     <g id="text_5">
      <!-- 110 -->
      <g transform="translate(71.450031 136.442396) scale(0.15 -0.15)">
       <use xlink:href="#ArialMT-31"/>
       <use xlink:href="#ArialMT-31" x="48.240234"/>
       <use xlink:href="#ArialMT-30" x="103.855469"/>
      </g>
     </g>
    </g>
    <g id="ytick_6">
     <g id="line2d_6">
      <g>
       <use xlink:href="#mabaa6feaf3" x="102.368" y="77.982545" style="stroke: #000000; stroke-width: 0.8"/>
      </g>
     </g>
     <g id="text_6">
      <!-- 120 -->
      <g transform="translate(70.343781 83.350905) scale(0.15 -0.15)">
       <defs>
        <path id="ArialMT-32" d="M 3222 541 
L 3222 0 
L 194 0 
Q 188 203 259 391 
Q 375 700 629 1000 
Q 884 1300 1366 1694 
Q 2113 2306 2375 2664 
Q 2638 3022 2638 3341 
Q 2638 3675 2398 3904 
Q 2159 4134 1775 4134 
Q 1369 4134 1125 3890 
Q 881 3647 878 3216 
L 300 3275 
Q 359 3922 746 4261 
Q 1134 4600 1788 4600 
Q 2447 4600 2831 4234 
Q 3216 3869 3216 3328 
Q 3216 3053 3103 2787 
Q 2991 2522 2730 2228 
Q 2469 1934 1863 1422 
Q 1356 997 1212 845 
Q 1069 694 975 541 
L 3222 541 
z
" transform="scale(0.015625)"/>
       </defs>
       <use xlink:href="#ArialMT-31"/>
       <use xlink:href="#ArialMT-32" x="55.615234"/>
       <use xlink:href="#ArialMT-30" x="111.230469"/>
      </g>
     </g>
    </g>
    <g id="text_7">
     <!-- (mtEdU distance)/(mtDNA distance)  -->
     <g transform="translate(39.159281 366.647541) rotate(-90) scale(0.21 -0.21)">
      <defs>
       <path id="ArialMT-28" d="M 1497 -1347 
Q 1031 -759 709 28 
Q 388 816 388 1659 
Q 388 2403 628 3084 
Q 909 3875 1497 4659 
L 1900 4659 
Q 1522 4009 1400 3731 
Q 1209 3300 1100 2831 
Q 966 2247 966 1656 
Q 966 153 1900 -1347 
L 1497 -1347 
z
" transform="scale(0.015625)"/>
       <path id="ArialMT-6d" d="M 422 0 
L 422 3319 
L 925 3319 
L 925 2853 
Q 1081 3097 1340 3245 
Q 1600 3394 1931 3394 
Q 2300 3394 2536 3241 
Q 2772 3088 2869 2813 
Q 3263 3394 3894 3394 
Q 4388 3394 4653 3120 
Q 4919 2847 4919 2278 
L 4919 0 
L 4359 0 
L 4359 2091 
Q 4359 2428 4304 2576 
Q 4250 2725 4106 2815 
Q 3963 2906 3769 2906 
Q 3419 2906 3187 2673 
Q 2956 2441 2956 1928 
L 2956 0 
L 2394 0 
L 2394 2156 
Q 2394 2531 2256 2718 
Q 2119 2906 1806 2906 
Q 1569 2906 1367 2781 
Q 1166 2656 1075 2415 
Q 984 2175 984 1722 
L 984 0 
L 422 0 
z
" transform="scale(0.015625)"/>
       <path id="ArialMT-74" d="M 1650 503 
L 1731 6 
Q 1494 -44 1306 -44 
Q 1000 -44 831 53 
Q 663 150 594 308 
Q 525 466 525 972 
L 525 2881 
L 113 2881 
L 113 3319 
L 525 3319 
L 525 4141 
L 1084 4478 
L 1084 3319 
L 1650 3319 
L 1650 2881 
L 1084 2881 
L 1084 941 
Q 1084 700 1114 631 
Q 1144 563 1211 522 
Q 1278 481 1403 481 
Q 1497 481 1650 503 
z
" transform="scale(0.015625)"/>
       <path id="ArialMT-45" d="M 506 0 
L 506 4581 
L 3819 4581 
L 3819 4041 
L 1113 4041 
L 1113 2638 
L 3647 2638 
L 3647 2100 
L 1113 2100 
L 1113 541 
L 3925 541 
L 3925 0 
L 506 0 
z
" transform="scale(0.015625)"/>
       <path id="ArialMT-64" d="M 2575 0 
L 2575 419 
Q 2259 -75 1647 -75 
Q 1250 -75 917 144 
Q 584 363 401 755 
Q 219 1147 219 1656 
Q 219 2153 384 2558 
Q 550 2963 881 3178 
Q 1213 3394 1622 3394 
Q 1922 3394 2156 3267 
Q 2391 3141 2538 2938 
L 2538 4581 
L 3097 4581 
L 3097 0 
L 2575 0 
z
M 797 1656 
Q 797 1019 1065 703 
Q 1334 388 1700 388 
Q 2069 388 2326 689 
Q 2584 991 2584 1609 
Q 2584 2291 2321 2609 
Q 2059 2928 1675 2928 
Q 1300 2928 1048 2622 
Q 797 2316 797 1656 
z
" transform="scale(0.015625)"/>
       <path id="ArialMT-55" d="M 3500 4581 
L 4106 4581 
L 4106 1934 
Q 4106 1244 3950 837 
Q 3794 431 3386 176 
Q 2978 -78 2316 -78 
Q 1672 -78 1262 144 
Q 853 366 678 786 
Q 503 1206 503 1934 
L 503 4581 
L 1109 4581 
L 1109 1938 
Q 1109 1341 1220 1058 
Q 1331 775 1601 622 
Q 1872 469 2263 469 
Q 2931 469 3215 772 
Q 3500 1075 3500 1938 
L 3500 4581 
z
" transform="scale(0.015625)"/>
       <path id="ArialMT-20" transform="scale(0.015625)"/>
       <path id="ArialMT-69" d="M 425 3934 
L 425 4581 
L 988 4581 
L 988 3934 
L 425 3934 
z
M 425 0 
L 425 3319 
L 988 3319 
L 988 0 
L 425 0 
z
" transform="scale(0.015625)"/>
       <path id="ArialMT-73" d="M 197 991 
L 753 1078 
Q 800 744 1014 566 
Q 1228 388 1613 388 
Q 2000 388 2187 545 
Q 2375 703 2375 916 
Q 2375 1106 2209 1216 
Q 2094 1291 1634 1406 
Q 1016 1563 777 1677 
Q 538 1791 414 1992 
Q 291 2194 291 2438 
Q 291 2659 392 2848 
Q 494 3038 669 3163 
Q 800 3259 1026 3326 
Q 1253 3394 1513 3394 
Q 1903 3394 2198 3281 
Q 2494 3169 2634 2976 
Q 2775 2784 2828 2463 
L 2278 2388 
Q 2241 2644 2061 2787 
Q 1881 2931 1553 2931 
Q 1166 2931 1000 2803 
Q 834 2675 834 2503 
Q 834 2394 903 2306 
Q 972 2216 1119 2156 
Q 1203 2125 1616 2013 
Q 2213 1853 2448 1751 
Q 2684 1650 2818 1456 
Q 2953 1263 2953 975 
Q 2953 694 2789 445 
Q 2625 197 2315 61 
Q 2006 -75 1616 -75 
Q 969 -75 630 194 
Q 291 463 197 991 
z
" transform="scale(0.015625)"/>
       <path id="ArialMT-61" d="M 2588 409 
Q 2275 144 1986 34 
Q 1697 -75 1366 -75 
Q 819 -75 525 192 
Q 231 459 231 875 
Q 231 1119 342 1320 
Q 453 1522 633 1644 
Q 813 1766 1038 1828 
Q 1203 1872 1538 1913 
Q 2219 1994 2541 2106 
Q 2544 2222 2544 2253 
Q 2544 2597 2384 2738 
Q 2169 2928 1744 2928 
Q 1347 2928 1158 2789 
Q 969 2650 878 2297 
L 328 2372 
Q 403 2725 575 2942 
Q 747 3159 1072 3276 
Q 1397 3394 1825 3394 
Q 2250 3394 2515 3294 
Q 2781 3194 2906 3042 
Q 3031 2891 3081 2659 
Q 3109 2516 3109 2141 
L 3109 1391 
Q 3109 606 3145 398 
Q 3181 191 3288 0 
L 2700 0 
Q 2613 175 2588 409 
z
M 2541 1666 
Q 2234 1541 1622 1453 
Q 1275 1403 1131 1340 
Q 988 1278 909 1158 
Q 831 1038 831 891 
Q 831 666 1001 516 
Q 1172 366 1500 366 
Q 1825 366 2078 508 
Q 2331 650 2450 897 
Q 2541 1088 2541 1459 
L 2541 1666 
z
" transform="scale(0.015625)"/>
       <path id="ArialMT-6e" d="M 422 0 
L 422 3319 
L 928 3319 
L 928 2847 
Q 1294 3394 1984 3394 
Q 2284 3394 2536 3286 
Q 2788 3178 2913 3003 
Q 3038 2828 3088 2588 
Q 3119 2431 3119 2041 
L 3119 0 
L 2556 0 
L 2556 2019 
Q 2556 2363 2490 2533 
Q 2425 2703 2258 2804 
Q 2091 2906 1866 2906 
Q 1506 2906 1245 2678 
Q 984 2450 984 1813 
L 984 0 
L 422 0 
z
" transform="scale(0.015625)"/>
       <path id="ArialMT-63" d="M 2588 1216 
L 3141 1144 
Q 3050 572 2676 248 
Q 2303 -75 1759 -75 
Q 1078 -75 664 370 
Q 250 816 250 1647 
Q 250 2184 428 2587 
Q 606 2991 970 3192 
Q 1334 3394 1763 3394 
Q 2303 3394 2647 3120 
Q 2991 2847 3088 2344 
L 2541 2259 
Q 2463 2594 2264 2762 
Q 2066 2931 1784 2931 
Q 1359 2931 1093 2626 
Q 828 2322 828 1663 
Q 828 994 1084 691 
Q 1341 388 1753 388 
Q 2084 388 2306 591 
Q 2528 794 2588 1216 
z
" transform="scale(0.015625)"/>
       <path id="ArialMT-65" d="M 2694 1069 
L 3275 997 
Q 3138 488 2766 206 
Q 2394 -75 1816 -75 
Q 1088 -75 661 373 
Q 234 822 234 1631 
Q 234 2469 665 2931 
Q 1097 3394 1784 3394 
Q 2450 3394 2872 2941 
Q 3294 2488 3294 1666 
Q 3294 1616 3291 1516 
L 816 1516 
Q 847 969 1125 678 
Q 1403 388 1819 388 
Q 2128 388 2347 550 
Q 2566 713 2694 1069 
z
M 847 1978 
L 2700 1978 
Q 2663 2397 2488 2606 
Q 2219 2931 1791 2931 
Q 1403 2931 1139 2672 
Q 875 2413 847 1978 
z
" transform="scale(0.015625)"/>
       <path id="ArialMT-29" d="M 791 -1347 
L 388 -1347 
Q 1322 153 1322 1656 
Q 1322 2244 1188 2822 
Q 1081 3291 891 3722 
Q 769 4003 388 4659 
L 791 4659 
Q 1378 3875 1659 3084 
Q 1900 2403 1900 1659 
Q 1900 816 1576 28 
Q 1253 -759 791 -1347 
z
" transform="scale(0.015625)"/>
       <path id="ArialMT-2f" d="M 0 -78 
L 1328 4659 
L 1778 4659 
L 453 -78 
L 0 -78 
z
" transform="scale(0.015625)"/>
       <path id="ArialMT-44" d="M 494 0 
L 494 4581 
L 2072 4581 
Q 2606 4581 2888 4516 
Q 3281 4425 3559 4188 
Q 3922 3881 4101 3404 
Q 4281 2928 4281 2316 
Q 4281 1794 4159 1391 
Q 4038 988 3847 723 
Q 3656 459 3429 307 
Q 3203 156 2883 78 
Q 2563 0 2147 0 
L 494 0 
z
M 1100 541 
L 2078 541 
Q 2531 541 2789 625 
Q 3047 709 3200 863 
Q 3416 1078 3536 1442 
Q 3656 1806 3656 2325 
Q 3656 3044 3420 3430 
Q 3184 3816 2847 3947 
Q 2603 4041 2063 4041 
L 1100 4041 
L 1100 541 
z
" transform="scale(0.015625)"/>
       <path id="ArialMT-4e" d="M 488 0 
L 488 4581 
L 1109 4581 
L 3516 984 
L 3516 4581 
L 4097 4581 
L 4097 0 
L 3475 0 
L 1069 3600 
L 1069 0 
L 488 0 
z
" transform="scale(0.015625)"/>
       <path id="ArialMT-41" d="M -9 0 
L 1750 4581 
L 2403 4581 
L 4278 0 
L 3588 0 
L 3053 1388 
L 1138 1388 
L 634 0 
L -9 0 
z
M 1313 1881 
L 2866 1881 
L 2388 3150 
Q 2169 3728 2063 4100 
Q 1975 3659 1816 3225 
L 1313 1881 
z
" transform="scale(0.015625)"/>
      </defs>
      <use xlink:href="#ArialMT-28"/>
      <use xlink:href="#ArialMT-6d" x="33.300781"/>
      <use xlink:href="#ArialMT-74" x="116.601562"/>
      <use xlink:href="#ArialMT-45" x="144.384766"/>
      <use xlink:href="#ArialMT-64" x="211.083984"/>
      <use xlink:href="#ArialMT-55" x="266.699219"/>
      <use xlink:href="#ArialMT-20" x="338.916016"/>
      <use xlink:href="#ArialMT-64" x="366.699219"/>
      <use xlink:href="#ArialMT-69" x="422.314453"/>
      <use xlink:href="#ArialMT-73" x="444.53125"/>
      <use xlink:href="#ArialMT-74" x="494.53125"/>
      <use xlink:href="#ArialMT-61" x="522.314453"/>
      <use xlink:href="#ArialMT-6e" x="577.929688"/>
      <use xlink:href="#ArialMT-63" x="633.544922"/>
      <use xlink:href="#ArialMT-65" x="683.544922"/>
      <use xlink:href="#ArialMT-29" x="739.160156"/>
      <use xlink:href="#ArialMT-2f" x="772.460938"/>
      <use xlink:href="#ArialMT-28" x="800.244141"/>
      <use xlink:href="#ArialMT-6d" x="833.544922"/>
      <use xlink:href="#ArialMT-74" x="916.845703"/>
      <use xlink:href="#ArialMT-44" x="944.628906"/>
      <use xlink:href="#ArialMT-4e" x="1016.845703"/>
      <use xlink:href="#ArialMT-41" x="1089.0625"/>
      <use xlink:href="#ArialMT-20" x="1150.261719"/>
      <use xlink:href="#ArialMT-64" x="1178.044922"/>
      <use xlink:href="#ArialMT-69" x="1233.660156"/>
      <use xlink:href="#ArialMT-73" x="1255.876953"/>
      <use xlink:href="#ArialMT-74" x="1305.876953"/>
      <use xlink:href="#ArialMT-61" x="1333.660156"/>
      <use xlink:href="#ArialMT-6e" x="1389.275391"/>
      <use xlink:href="#ArialMT-63" x="1444.890625"/>
      <use xlink:href="#ArialMT-65" x="1494.890625"/>
      <use xlink:href="#ArialMT-29" x="1550.505859"/>
      <use xlink:href="#ArialMT-20" x="1583.806641"/>
     </g>
     <!--  from nucleus centre at 1 hour (%) -->
     <g transform="translate(61.923938 356.162306) rotate(-90) scale(0.21 -0.21)">
      <defs>
       <path id="ArialMT-66" d="M 556 0 
L 556 2881 
L 59 2881 
L 59 3319 
L 556 3319 
L 556 3672 
Q 556 4006 616 4169 
Q 697 4388 901 4523 
Q 1106 4659 1475 4659 
Q 1713 4659 2000 4603 
L 1916 4113 
Q 1741 4144 1584 4144 
Q 1328 4144 1222 4034 
Q 1116 3925 1116 3625 
L 1116 3319 
L 1763 3319 
L 1763 2881 
L 1116 2881 
L 1116 0 
L 556 0 
z
" transform="scale(0.015625)"/>
       <path id="ArialMT-72" d="M 416 0 
L 416 3319 
L 922 3319 
L 922 2816 
Q 1116 3169 1280 3281 
Q 1444 3394 1641 3394 
Q 1925 3394 2219 3213 
L 2025 2691 
Q 1819 2813 1613 2813 
Q 1428 2813 1281 2702 
Q 1134 2591 1072 2394 
Q 978 2094 978 1738 
L 978 0 
L 416 0 
z
" transform="scale(0.015625)"/>
       <path id="ArialMT-6f" d="M 213 1659 
Q 213 2581 725 3025 
Q 1153 3394 1769 3394 
Q 2453 3394 2887 2945 
Q 3322 2497 3322 1706 
Q 3322 1066 3130 698 
Q 2938 331 2570 128 
Q 2203 -75 1769 -75 
Q 1072 -75 642 372 
Q 213 819 213 1659 
z
M 791 1659 
Q 791 1022 1069 705 
Q 1347 388 1769 388 
Q 2188 388 2466 706 
Q 2744 1025 2744 1678 
Q 2744 2294 2464 2611 
Q 2184 2928 1769 2928 
Q 1347 2928 1069 2612 
Q 791 2297 791 1659 
z
" transform="scale(0.015625)"/>
       <path id="ArialMT-75" d="M 2597 0 
L 2597 488 
Q 2209 -75 1544 -75 
Q 1250 -75 995 37 
Q 741 150 617 320 
Q 494 491 444 738 
Q 409 903 409 1263 
L 409 3319 
L 972 3319 
L 972 1478 
Q 972 1038 1006 884 
Q 1059 663 1231 536 
Q 1403 409 1656 409 
Q 1909 409 2131 539 
Q 2353 669 2445 892 
Q 2538 1116 2538 1541 
L 2538 3319 
L 3100 3319 
L 3100 0 
L 2597 0 
z
" transform="scale(0.015625)"/>
       <path id="ArialMT-6c" d="M 409 0 
L 409 4581 
L 972 4581 
L 972 0 
L 409 0 
z
" transform="scale(0.015625)"/>
       <path id="ArialMT-68" d="M 422 0 
L 422 4581 
L 984 4581 
L 984 2938 
Q 1378 3394 1978 3394 
Q 2347 3394 2619 3248 
Q 2891 3103 3008 2847 
Q 3125 2591 3125 2103 
L 3125 0 
L 2563 0 
L 2563 2103 
Q 2563 2525 2380 2717 
Q 2197 2909 1863 2909 
Q 1613 2909 1392 2779 
Q 1172 2650 1078 2428 
Q 984 2206 984 1816 
L 984 0 
L 422 0 
z
" transform="scale(0.015625)"/>
       <path id="ArialMT-25" d="M 372 3481 
Q 372 3972 619 4315 
Q 866 4659 1334 4659 
Q 1766 4659 2048 4351 
Q 2331 4044 2331 3447 
Q 2331 2866 2045 2552 
Q 1759 2238 1341 2238 
Q 925 2238 648 2547 
Q 372 2856 372 3481 
z
M 1350 4272 
Q 1141 4272 1002 4090 
Q 863 3909 863 3425 
Q 863 2984 1003 2804 
Q 1144 2625 1350 2625 
Q 1563 2625 1702 2806 
Q 1841 2988 1841 3469 
Q 1841 3913 1700 4092 
Q 1559 4272 1350 4272 
z
M 1353 -169 
L 3859 4659 
L 4316 4659 
L 1819 -169 
L 1353 -169 
z
M 3334 1075 
Q 3334 1569 3581 1911 
Q 3828 2253 4300 2253 
Q 4731 2253 5014 1945 
Q 5297 1638 5297 1041 
Q 5297 459 5011 145 
Q 4725 -169 4303 -169 
Q 3888 -169 3611 142 
Q 3334 453 3334 1075 
z
M 4316 1866 
Q 4103 1866 3964 1684 
Q 3825 1503 3825 1019 
Q 3825 581 3965 400 
Q 4106 219 4313 219 
Q 4528 219 4667 400 
Q 4806 581 4806 1063 
Q 4806 1506 4665 1686 
Q 4525 1866 4316 1866 
z
" transform="scale(0.015625)"/>
      </defs>
      <use xlink:href="#ArialMT-20"/>
      <use xlink:href="#ArialMT-66" x="27.783203"/>
      <use xlink:href="#ArialMT-72" x="55.566406"/>
      <use xlink:href="#ArialMT-6f" x="88.867188"/>
      <use xlink:href="#ArialMT-6d" x="144.482422"/>
      <use xlink:href="#ArialMT-20" x="227.783203"/>
      <use xlink:href="#ArialMT-6e" x="255.566406"/>
      <use xlink:href="#ArialMT-75" x="311.181641"/>
      <use xlink:href="#ArialMT-63" x="366.796875"/>
      <use xlink:href="#ArialMT-6c" x="416.796875"/>
      <use xlink:href="#ArialMT-65" x="439.013672"/>
      <use xlink:href="#ArialMT-75" x="494.628906"/>
      <use xlink:href="#ArialMT-73" x="550.244141"/>
      <use xlink:href="#ArialMT-20" x="600.244141"/>
      <use xlink:href="#ArialMT-63" x="628.027344"/>
      <use xlink:href="#ArialMT-65" x="678.027344"/>
      <use xlink:href="#ArialMT-6e" x="733.642578"/>
      <use xlink:href="#ArialMT-74" x="789.257812"/>
      <use xlink:href="#ArialMT-72" x="817.041016"/>
      <use xlink:href="#ArialMT-65" x="850.341797"/>
      <use xlink:href="#ArialMT-20" x="905.957031"/>
      <use xlink:href="#ArialMT-61" x="933.740234"/>
      <use xlink:href="#ArialMT-74" x="989.355469"/>
      <use xlink:href="#ArialMT-20" x="1017.138672"/>
      <use xlink:href="#ArialMT-31" x="1044.921875"/>
      <use xlink:href="#ArialMT-20" x="1100.537109"/>
      <use xlink:href="#ArialMT-68" x="1128.320312"/>
      <use xlink:href="#ArialMT-6f" x="1183.935547"/>
      <use xlink:href="#ArialMT-75" x="1239.550781"/>
      <use xlink:href="#ArialMT-72" x="1295.166016"/>
      <use xlink:href="#ArialMT-20" x="1328.466797"/>
      <use xlink:href="#ArialMT-28" x="1356.25"/>
      <use xlink:href="#ArialMT-25" x="1389.550781"/>
      <use xlink:href="#ArialMT-29" x="1478.466797"/>
     </g>
    </g>
   </g>
   <g id="LineCollection_1">
    <path d="M 129.844 253.164129 
L 129.844 239.223583 
" clip-path="url(#p59eb7cd8f8)" style="fill: none; stroke: #000000; stroke-width: 1.5"/>
   </g>
   <g id="line2d_7">
    <defs>
     <path id="m7817a3ef46" d="M 5 0 
L -5 -0 
" style="stroke: #000000"/>
    </defs>
    <g clip-path="url(#p59eb7cd8f8)">
     <use xlink:href="#m7817a3ef46" x="129.844" y="253.164129" style="stroke: #000000"/>
    </g>
   </g>
   <g id="line2d_8">
    <g clip-path="url(#p59eb7cd8f8)">
     <use xlink:href="#m7817a3ef46" x="129.844" y="239.223583" style="stroke: #000000"/>
    </g>
   </g>
   <g id="line2d_9">
    <path d="M 102.368 184.165527 
L 157.32 184.165527 
" clip-path="url(#p59eb7cd8f8)" style="fill: none; stroke-dasharray: 5.55,2.4; stroke-dashoffset: 0; stroke: #000000; stroke-width: 1.5"/>
   </g>
   <g id="patch_4">
    <path d="M 102.368 343.44 
L 102.368 51.4368 
" style="fill: none; stroke: #000000; stroke-width: 0.8; stroke-linejoin: miter; stroke-linecap: square"/>
   </g>
   <g id="patch_5">
    <path d="M 157.32 343.44 
L 157.32 51.4368 
" style="fill: none; stroke: #000000; stroke-width: 0.8; stroke-linejoin: miter; stroke-linecap: square"/>
   </g>
   <g id="patch_6">
    <path d="M 102.368 343.44 
L 157.32 343.44 
" style="fill: none; stroke: #000000; stroke-width: 0.8; stroke-linejoin: miter; stroke-linecap: square"/>
   </g>
   <g id="patch_7">
    <path d="M 102.368 51.4368 
L 157.32 51.4368 
" style="fill: none; stroke: #000000; stroke-width: 0.8; stroke-linejoin: miter; stroke-linecap: square"/>
   </g>
   <g id="text_8">
    <!-- $p &lt; 10^{-10}$ -->
    <g transform="translate(102.368 35.509353) scale(0.12 -0.12)">
     <defs>
      <path id="DejaVuSans-Oblique-70" d="M 3175 2156 
Q 3175 2616 2975 2859 
Q 2775 3103 2400 3103 
Q 2144 3103 1911 2972 
Q 1678 2841 1497 2591 
Q 1319 2344 1212 1994 
Q 1106 1644 1106 1300 
Q 1106 863 1306 627 
Q 1506 391 1875 391 
Q 2147 391 2380 519 
Q 2613 647 2778 891 
Q 2956 1147 3065 1494 
Q 3175 1841 3175 2156 
z
M 1394 2969 
Q 1625 3272 1939 3428 
Q 2253 3584 2638 3584 
Q 3175 3584 3472 3232 
Q 3769 2881 3769 2247 
Q 3769 1728 3584 1258 
Q 3400 788 3053 416 
Q 2822 169 2531 39 
Q 2241 -91 1919 -91 
Q 1547 -91 1294 64 
Q 1041 219 916 525 
L 556 -1331 
L -19 -1331 
L 922 3500 
L 1497 3500 
L 1394 2969 
z
" transform="scale(0.015625)"/>
      <path id="DejaVuSans-3c" d="M 4684 3150 
L 1459 2003 
L 4684 863 
L 4684 294 
L 678 1747 
L 678 2266 
L 4684 3719 
L 4684 3150 
z
" transform="scale(0.015625)"/>
      <path id="DejaVuSans-31" d="M 794 531 
L 1825 531 
L 1825 4091 
L 703 3866 
L 703 4441 
L 1819 4666 
L 2450 4666 
L 2450 531 
L 3481 531 
L 3481 0 
L 794 0 
L 794 531 
z
" transform="scale(0.015625)"/>
      <path id="DejaVuSans-30" d="M 2034 4250 
Q 1547 4250 1301 3770 
Q 1056 3291 1056 2328 
Q 1056 1369 1301 889 
Q 1547 409 2034 409 
Q 2525 409 2770 889 
Q 3016 1369 3016 2328 
Q 3016 3291 2770 3770 
Q 2525 4250 2034 4250 
z
M 2034 4750 
Q 2819 4750 3233 4129 
Q 3647 3509 3647 2328 
Q 3647 1150 3233 529 
Q 2819 -91 2034 -91 
Q 1250 -91 836 529 
Q 422 1150 422 2328 
Q 422 3509 836 4129 
Q 1250 4750 2034 4750 
z
" transform="scale(0.015625)"/>
      <path id="DejaVuSans-2212" d="M 678 2272 
L 4684 2272 
L 4684 1741 
L 678 1741 
L 678 2272 
z
" transform="scale(0.015625)"/>
     </defs>
     <use xlink:href="#DejaVuSans-Oblique-70" transform="translate(0 0.765625)"/>
     <use xlink:href="#DejaVuSans-3c" transform="translate(82.958984 0.765625)"/>
     <use xlink:href="#DejaVuSans-31" transform="translate(186.230469 0.765625)"/>
     <use xlink:href="#DejaVuSans-30" transform="translate(249.853516 0.765625)"/>
     <use xlink:href="#DejaVuSans-2212" transform="translate(314.433594 39.046875) scale(0.7)"/>
     <use xlink:href="#DejaVuSans-31" transform="translate(373.085938 39.046875) scale(0.7)"/>
     <use xlink:href="#DejaVuSans-30" transform="translate(417.62207 39.046875) scale(0.7)"/>
    </g>
   </g>
  </g>
 </g>
 <defs>
  <clipPath id="p59eb7cd8f8">
   <rect x="102.368" y="51.4368" width="54.952" height="292.0032"/>
  </clipPath>
 </defs>
</svg>
