<?xml version="1.0" encoding="utf-8" standalone="no"?>
<!DOCTYPE svg PUBLIC "-//W3C//DTD SVG 1.1//EN"
  "http://www.w3.org/Graphics/SVG/1.1/DTD/svg11.dtd">
<svg xmlns:xlink="http://www.w3.org/1999/xlink" width="432pt" height="288pt" viewBox="0 0 432 288" xmlns="http://www.w3.org/2000/svg" version="1.1">
 <metadata>
  <rdf:RDF xmlns:dc="http://purl.org/dc/elements/1.1/" xmlns:cc="http://creativecommons.org/ns#" xmlns:rdf="http://www.w3.org/1999/02/22-rdf-syntax-ns#">
   <cc:Work>
    <dc:type rdf:resource="http://purl.org/dc/dcmitype/StillImage"/>
    <dc:date>2025-07-22T17:23:54.641669</dc:date>
    <dc:format>image/svg+xml</dc:format>
    <dc:creator>
     <cc:Agent>
      <dc:title>Matplotlib v3.9.2, https://matplotlib.org/</dc:title>
     </cc:Agent>
    </dc:creator>
   </cc:Work>
  </rdf:RDF>
 </metadata>
 <defs>
  <style type="text/css">*{stroke-linejoin: round; stroke-linecap: butt}</style>
 </defs>
 <g id="figure_1">
  <g id="patch_1">
   <path d="M 0 288 
L 432 288 
L 432 0 
L 0 0 
z
" style="fill: #ffffff"/>
  </g>
  <g id="axes_1">
   <g id="patch_2">
    <path d="M 102.278 220.48 
L 409.32 220.48 
L 409.32 27.873813 
L 102.278 27.873813 
z
" style="fill: #ffffff"/>
   </g>
   <g id="matplotlib.axis_1">
    <g id="xtick_1">
     <g id="line2d_1">
      <defs>
       <path id="m7ae63fb634" d="M 0 0 
L 0 3.5 
" style="stroke: #000000; stroke-width: 0.8"/>
      </defs>
      <g>
       <use xlink:href="#m7ae63fb634" x="105.069291" y="220.48" style="stroke: #000000; stroke-width: 0.8"/>
      </g>
     </g>
     <g id="text_1">
      <!-- 0 -->
      <g transform="translate(100.898588 238.216719) scale(0.15 -0.15)">
       <defs>
        <path id="ArialMT-30" d="M 266 2259 
Q 266 3072 433 3567 
Q 600 4063 929 4331 
Q 1259 4600 1759 4600 
Q 2128 4600 2406 4451 
Q 2684 4303 2865 4023 
Q 3047 3744 3150 3342 
Q 3253 2941 3253 2259 
Q 3253 1453 3087 958 
Q 2922 463 2592 192 
Q 2263 -78 1759 -78 
Q 1097 -78 719 397 
Q 266 969 266 2259 
z
M 844 2259 
Q 844 1131 1108 757 
Q 1372 384 1759 384 
Q 2147 384 2411 759 
Q 2675 1134 2675 2259 
Q 2675 3391 2411 3762 
Q 2147 4134 1753 4134 
Q 1366 4134 1134 3806 
Q 844 3388 844 2259 
z
" transform="scale(0.015625)"/>
       </defs>
       <use xlink:href="#ArialMT-30"/>
      </g>
     </g>
    </g>
    <g id="xtick_2">
     <g id="line2d_2">
      <g>
       <use xlink:href="#m7ae63fb634" x="160.895109" y="220.48" style="stroke: #000000; stroke-width: 0.8"/>
      </g>
     </g>
     <g id="text_2">
      <!-- 5 -->
      <g transform="translate(156.724406 238.216719) scale(0.15 -0.15)">
       <defs>
        <path id="ArialMT-35" d="M 266 1200 
L 856 1250 
Q 922 819 1161 601 
Q 1400 384 1738 384 
Q 2144 384 2425 690 
Q 2706 997 2706 1503 
Q 2706 1984 2436 2262 
Q 2166 2541 1728 2541 
Q 1456 2541 1237 2417 
Q 1019 2294 894 2097 
L 366 2166 
L 809 4519 
L 3088 4519 
L 3088 3981 
L 1259 3981 
L 1013 2750 
Q 1425 3038 1878 3038 
Q 2478 3038 2890 2622 
Q 3303 2206 3303 1553 
Q 3303 931 2941 478 
Q 2500 -78 1738 -78 
Q 1113 -78 717 272 
Q 322 622 266 1200 
z
" transform="scale(0.015625)"/>
       </defs>
       <use xlink:href="#ArialMT-35"/>
      </g>
     </g>
    </g>
    <g id="xtick_3">
     <g id="line2d_3">
      <g>
       <use xlink:href="#m7ae63fb634" x="216.720927" y="220.48" style="stroke: #000000; stroke-width: 0.8"/>
      </g>
     </g>
     <g id="text_3">
      <!-- 10 -->
      <g transform="translate(208.379521 238.216719) scale(0.15 -0.15)">
       <defs>
        <path id="ArialMT-31" d="M 2384 0 
L 1822 0 
L 1822 3584 
Q 1619 3391 1289 3197 
Q 959 3003 697 2906 
L 697 3450 
Q 1169 3672 1522 3987 
Q 1875 4303 2022 4600 
L 2384 4600 
L 2384 0 
z
" transform="scale(0.015625)"/>
       </defs>
       <use xlink:href="#ArialMT-31"/>
       <use xlink:href="#ArialMT-30" x="55.615234"/>
      </g>
     </g>
    </g>
    <g id="xtick_4">
     <g id="line2d_4">
      <g>
       <use xlink:href="#m7ae63fb634" x="272.546745" y="220.48" style="stroke: #000000; stroke-width: 0.8"/>
      </g>
     </g>
     <g id="text_4">
      <!-- 15 -->
      <g transform="translate(264.205339 238.216719) scale(0.15 -0.15)">
       <use xlink:href="#ArialMT-31"/>
       <use xlink:href="#ArialMT-35" x="55.615234"/>
      </g>
     </g>
    </g>
    <g id="xtick_5">
     <g id="line2d_5">
      <g>
       <use xlink:href="#m7ae63fb634" x="328.372564" y="220.48" style="stroke: #000000; stroke-width: 0.8"/>
      </g>
     </g>
     <g id="text_5">
      <!-- 20 -->
      <g transform="translate(320.031157 238.216719) scale(0.15 -0.15)">
       <defs>
        <path id="ArialMT-32" d="M 3222 541 
L 3222 0 
L 194 0 
Q 188 203 259 391 
Q 375 700 629 1000 
Q 884 1300 1366 1694 
Q 2113 2306 2375 2664 
Q 2638 3022 2638 3341 
Q 2638 3675 2398 3904 
Q 2159 4134 1775 4134 
Q 1369 4134 1125 3890 
Q 881 3647 878 3216 
L 300 3275 
Q 359 3922 746 4261 
Q 1134 4600 1788 4600 
Q 2447 4600 2831 4234 
Q 3216 3869 3216 3328 
Q 3216 3053 3103 2787 
Q 2991 2522 2730 2228 
Q 2469 1934 1863 1422 
Q 1356 997 1212 845 
Q 1069 694 975 541 
L 3222 541 
z
" transform="scale(0.015625)"/>
       </defs>
       <use xlink:href="#ArialMT-32"/>
       <use xlink:href="#ArialMT-30" x="55.615234"/>
      </g>
     </g>
    </g>
    <g id="xtick_6">
     <g id="line2d_6">
      <g>
       <use xlink:href="#m7ae63fb634" x="384.198382" y="220.48" style="stroke: #000000; stroke-width: 0.8"/>
      </g>
     </g>
     <g id="text_6">
      <!-- 25 -->
      <g transform="translate(375.856976 238.216719) scale(0.15 -0.15)">
       <use xlink:href="#ArialMT-32"/>
       <use xlink:href="#ArialMT-35" x="55.615234"/>
      </g>
     </g>
    </g>
    <g id="text_7">
     <!-- Time (h) -->
     <g transform="translate(217.113063 260.485312) scale(0.21 -0.21)">
      <defs>
       <path id="ArialMT-54" d="M 1659 0 
L 1659 4041 
L 150 4041 
L 150 4581 
L 3781 4581 
L 3781 4041 
L 2266 4041 
L 2266 0 
L 1659 0 
z
" transform="scale(0.015625)"/>
       <path id="ArialMT-69" d="M 425 3934 
L 425 4581 
L 988 4581 
L 988 3934 
L 425 3934 
z
M 425 0 
L 425 3319 
L 988 3319 
L 988 0 
L 425 0 
z
" transform="scale(0.015625)"/>
       <path id="ArialMT-6d" d="M 422 0 
L 422 3319 
L 925 3319 
L 925 2853 
Q 1081 3097 1340 3245 
Q 1600 3394 1931 3394 
Q 2300 3394 2536 3241 
Q 2772 3088 2869 2813 
Q 3263 3394 3894 3394 
Q 4388 3394 4653 3120 
Q 4919 2847 4919 2278 
L 4919 0 
L 4359 0 
L 4359 2091 
Q 4359 2428 4304 2576 
Q 4250 2725 4106 2815 
Q 3963 2906 3769 2906 
Q 3419 2906 3187 2673 
Q 2956 2441 2956 1928 
L 2956 0 
L 2394 0 
L 2394 2156 
Q 2394 2531 2256 2718 
Q 2119 2906 1806 2906 
Q 1569 2906 1367 2781 
Q 1166 2656 1075 2415 
Q 984 2175 984 1722 
L 984 0 
L 422 0 
z
" transform="scale(0.015625)"/>
       <path id="ArialMT-65" d="M 2694 1069 
L 3275 997 
Q 3138 488 2766 206 
Q 2394 -75 1816 -75 
Q 1088 -75 661 373 
Q 234 822 234 1631 
Q 234 2469 665 2931 
Q 1097 3394 1784 3394 
Q 2450 3394 2872 2941 
Q 3294 2488 3294 1666 
Q 3294 1616 3291 1516 
L 816 1516 
Q 847 969 1125 678 
Q 1403 388 1819 388 
Q 2128 388 2347 550 
Q 2566 713 2694 1069 
z
M 847 1978 
L 2700 1978 
Q 2663 2397 2488 2606 
Q 2219 2931 1791 2931 
Q 1403 2931 1139 2672 
Q 875 2413 847 1978 
z
" transform="scale(0.015625)"/>
       <path id="ArialMT-20" transform="scale(0.015625)"/>
       <path id="ArialMT-28" d="M 1497 -1347 
Q 1031 -759 709 28 
Q 388 816 388 1659 
Q 388 2403 628 3084 
Q 909 3875 1497 4659 
L 1900 4659 
Q 1522 4009 1400 3731 
Q 1209 3300 1100 2831 
Q 966 2247 966 1656 
Q 966 153 1900 -1347 
L 1497 -1347 
z
" transform="scale(0.015625)"/>
       <path id="ArialMT-68" d="M 422 0 
L 422 4581 
L 984 4581 
L 984 2938 
Q 1378 3394 1978 3394 
Q 2347 3394 2619 3248 
Q 2891 3103 3008 2847 
Q 3125 2591 3125 2103 
L 3125 0 
L 2563 0 
L 2563 2103 
Q 2563 2525 2380 2717 
Q 2197 2909 1863 2909 
Q 1613 2909 1392 2779 
Q 1172 2650 1078 2428 
Q 984 2206 984 1816 
L 984 0 
L 422 0 
z
" transform="scale(0.015625)"/>
       <path id="ArialMT-29" d="M 791 -1347 
L 388 -1347 
Q 1322 153 1322 1656 
Q 1322 2244 1188 2822 
Q 1081 3291 891 3722 
Q 769 4003 388 4659 
L 791 4659 
Q 1378 3875 1659 3084 
Q 1900 2403 1900 1659 
Q 1900 816 1576 28 
Q 1253 -759 791 -1347 
z
" transform="scale(0.015625)"/>
      </defs>
      <use xlink:href="#ArialMT-54"/>
      <use xlink:href="#ArialMT-69" x="57.333984"/>
      <use xlink:href="#ArialMT-6d" x="79.550781"/>
      <use xlink:href="#ArialMT-65" x="162.851562"/>
      <use xlink:href="#ArialMT-20" x="218.466797"/>
      <use xlink:href="#ArialMT-28" x="246.25"/>
      <use xlink:href="#ArialMT-68" x="279.550781"/>
      <use xlink:href="#ArialMT-29" x="335.166016"/>
     </g>
    </g>
   </g>
   <g id="matplotlib.axis_2">
    <g id="ytick_1">
     <g id="line2d_7">
      <defs>
       <path id="m18fa913168" d="M 0 0 
L -3.5 0 
" style="stroke: #000000; stroke-width: 0.8"/>
      </defs>
      <g>
       <use xlink:href="#m18fa913168" x="102.278" y="214.728679" style="stroke: #000000; stroke-width: 0.8"/>
      </g>
     </g>
     <g id="text_8">
      <!-- 80 -->
      <g transform="translate(78.595188 220.097039) scale(0.15 -0.15)">
       <defs>
        <path id="ArialMT-38" d="M 1131 2484 
Q 781 2613 612 2850 
Q 444 3088 444 3419 
Q 444 3919 803 4259 
Q 1163 4600 1759 4600 
Q 2359 4600 2725 4251 
Q 3091 3903 3091 3403 
Q 3091 3084 2923 2848 
Q 2756 2613 2416 2484 
Q 2838 2347 3058 2040 
Q 3278 1734 3278 1309 
Q 3278 722 2862 322 
Q 2447 -78 1769 -78 
Q 1091 -78 675 323 
Q 259 725 259 1325 
Q 259 1772 486 2073 
Q 713 2375 1131 2484 
z
M 1019 3438 
Q 1019 3113 1228 2906 
Q 1438 2700 1772 2700 
Q 2097 2700 2305 2904 
Q 2513 3109 2513 3406 
Q 2513 3716 2298 3927 
Q 2084 4138 1766 4138 
Q 1444 4138 1231 3931 
Q 1019 3725 1019 3438 
z
M 838 1322 
Q 838 1081 952 856 
Q 1066 631 1291 507 
Q 1516 384 1775 384 
Q 2178 384 2440 643 
Q 2703 903 2703 1303 
Q 2703 1709 2433 1975 
Q 2163 2241 1756 2241 
Q 1359 2241 1098 1978 
Q 838 1716 838 1322 
z
" transform="scale(0.015625)"/>
       </defs>
       <use xlink:href="#ArialMT-38"/>
       <use xlink:href="#ArialMT-30" x="55.615234"/>
      </g>
     </g>
    </g>
    <g id="ytick_2">
     <g id="line2d_8">
      <g>
       <use xlink:href="#m18fa913168" x="102.278" y="152.503418" style="stroke: #000000; stroke-width: 0.8"/>
      </g>
     </g>
     <g id="text_9">
      <!-- 100 -->
      <g transform="translate(70.253781 157.871777) scale(0.15 -0.15)">
       <use xlink:href="#ArialMT-31"/>
       <use xlink:href="#ArialMT-30" x="55.615234"/>
       <use xlink:href="#ArialMT-30" x="111.230469"/>
      </g>
     </g>
    </g>
    <g id="ytick_3">
     <g id="line2d_9">
      <g>
       <use xlink:href="#m18fa913168" x="102.278" y="90.278156" style="stroke: #000000; stroke-width: 0.8"/>
      </g>
     </g>
     <g id="text_10">
      <!-- 120 -->
      <g transform="translate(70.253781 95.646515) scale(0.15 -0.15)">
       <use xlink:href="#ArialMT-31"/>
       <use xlink:href="#ArialMT-32" x="55.615234"/>
       <use xlink:href="#ArialMT-30" x="111.230469"/>
      </g>
     </g>
    </g>
    <g id="ytick_4">
     <g id="line2d_10">
      <g>
       <use xlink:href="#m18fa913168" x="102.278" y="28.052894" style="stroke: #000000; stroke-width: 0.8"/>
      </g>
     </g>
     <g id="text_11">
      <!-- 140 -->
      <g transform="translate(70.253781 33.421253) scale(0.15 -0.15)">
       <defs>
        <path id="ArialMT-34" d="M 2069 0 
L 2069 1097 
L 81 1097 
L 81 1613 
L 2172 4581 
L 2631 4581 
L 2631 1613 
L 3250 1613 
L 3250 1097 
L 2631 1097 
L 2631 0 
L 2069 0 
z
M 2069 1613 
L 2069 3678 
L 634 1613 
L 2069 1613 
z
" transform="scale(0.015625)"/>
       </defs>
       <use xlink:href="#ArialMT-31"/>
       <use xlink:href="#ArialMT-34" x="55.615234"/>
       <use xlink:href="#ArialMT-30" x="111.230469"/>
      </g>
     </g>
    </g>
    <g id="text_12">
     <!-- mtDNA number  -->
     <g transform="translate(39.868594 198.864719) rotate(-90) scale(0.21 -0.21)">
      <defs>
       <path id="ArialMT-74" d="M 1650 503 
L 1731 6 
Q 1494 -44 1306 -44 
Q 1000 -44 831 53 
Q 663 150 594 308 
Q 525 466 525 972 
L 525 2881 
L 113 2881 
L 113 3319 
L 525 3319 
L 525 4141 
L 1084 4478 
L 1084 3319 
L 1650 3319 
L 1650 2881 
L 1084 2881 
L 1084 941 
Q 1084 700 1114 631 
Q 1144 563 1211 522 
Q 1278 481 1403 481 
Q 1497 481 1650 503 
z
" transform="scale(0.015625)"/>
       <path id="ArialMT-44" d="M 494 0 
L 494 4581 
L 2072 4581 
Q 2606 4581 2888 4516 
Q 3281 4425 3559 4188 
Q 3922 3881 4101 3404 
Q 4281 2928 4281 2316 
Q 4281 1794 4159 1391 
Q 4038 988 3847 723 
Q 3656 459 3429 307 
Q 3203 156 2883 78 
Q 2563 0 2147 0 
L 494 0 
z
M 1100 541 
L 2078 541 
Q 2531 541 2789 625 
Q 3047 709 3200 863 
Q 3416 1078 3536 1442 
Q 3656 1806 3656 2325 
Q 3656 3044 3420 3430 
Q 3184 3816 2847 3947 
Q 2603 4041 2063 4041 
L 1100 4041 
L 1100 541 
z
" transform="scale(0.015625)"/>
       <path id="ArialMT-4e" d="M 488 0 
L 488 4581 
L 1109 4581 
L 3516 984 
L 3516 4581 
L 4097 4581 
L 4097 0 
L 3475 0 
L 1069 3600 
L 1069 0 
L 488 0 
z
" transform="scale(0.015625)"/>
       <path id="ArialMT-41" d="M -9 0 
L 1750 4581 
L 2403 4581 
L 4278 0 
L 3588 0 
L 3053 1388 
L 1138 1388 
L 634 0 
L -9 0 
z
M 1313 1881 
L 2866 1881 
L 2388 3150 
Q 2169 3728 2063 4100 
Q 1975 3659 1816 3225 
L 1313 1881 
z
" transform="scale(0.015625)"/>
       <path id="ArialMT-6e" d="M 422 0 
L 422 3319 
L 928 3319 
L 928 2847 
Q 1294 3394 1984 3394 
Q 2284 3394 2536 3286 
Q 2788 3178 2913 3003 
Q 3038 2828 3088 2588 
Q 3119 2431 3119 2041 
L 3119 0 
L 2556 0 
L 2556 2019 
Q 2556 2363 2490 2533 
Q 2425 2703 2258 2804 
Q 2091 2906 1866 2906 
Q 1506 2906 1245 2678 
Q 984 2450 984 1813 
L 984 0 
L 422 0 
z
" transform="scale(0.015625)"/>
       <path id="ArialMT-75" d="M 2597 0 
L 2597 488 
Q 2209 -75 1544 -75 
Q 1250 -75 995 37 
Q 741 150 617 320 
Q 494 491 444 738 
Q 409 903 409 1263 
L 409 3319 
L 972 3319 
L 972 1478 
Q 972 1038 1006 884 
Q 1059 663 1231 536 
Q 1403 409 1656 409 
Q 1909 409 2131 539 
Q 2353 669 2445 892 
Q 2538 1116 2538 1541 
L 2538 3319 
L 3100 3319 
L 3100 0 
L 2597 0 
z
" transform="scale(0.015625)"/>
       <path id="ArialMT-62" d="M 941 0 
L 419 0 
L 419 4581 
L 981 4581 
L 981 2947 
Q 1338 3394 1891 3394 
Q 2197 3394 2470 3270 
Q 2744 3147 2920 2923 
Q 3097 2700 3197 2384 
Q 3297 2069 3297 1709 
Q 3297 856 2875 390 
Q 2453 -75 1863 -75 
Q 1275 -75 941 416 
L 941 0 
z
M 934 1684 
Q 934 1088 1097 822 
Q 1363 388 1816 388 
Q 2184 388 2453 708 
Q 2722 1028 2722 1663 
Q 2722 2313 2464 2622 
Q 2206 2931 1841 2931 
Q 1472 2931 1203 2611 
Q 934 2291 934 1684 
z
" transform="scale(0.015625)"/>
       <path id="ArialMT-72" d="M 416 0 
L 416 3319 
L 922 3319 
L 922 2816 
Q 1116 3169 1280 3281 
Q 1444 3394 1641 3394 
Q 1925 3394 2219 3213 
L 2025 2691 
Q 1819 2813 1613 2813 
Q 1428 2813 1281 2702 
Q 1134 2591 1072 2394 
Q 978 2094 978 1738 
L 978 0 
L 416 0 
z
" transform="scale(0.015625)"/>
      </defs>
      <use xlink:href="#ArialMT-6d"/>
      <use xlink:href="#ArialMT-74" x="83.300781"/>
      <use xlink:href="#ArialMT-44" x="111.083984"/>
      <use xlink:href="#ArialMT-4e" x="183.300781"/>
      <use xlink:href="#ArialMT-41" x="255.517578"/>
      <use xlink:href="#ArialMT-20" x="316.716797"/>
      <use xlink:href="#ArialMT-6e" x="344.5"/>
      <use xlink:href="#ArialMT-75" x="400.115234"/>
      <use xlink:href="#ArialMT-6d" x="455.730469"/>
      <use xlink:href="#ArialMT-62" x="539.03125"/>
      <use xlink:href="#ArialMT-65" x="594.646484"/>
      <use xlink:href="#ArialMT-72" x="650.261719"/>
      <use xlink:href="#ArialMT-20" x="683.5625"/>
     </g>
     <!--  per cell -->
     <g transform="translate(62.080031 160.940032) rotate(-90) scale(0.21 -0.21)">
      <defs>
       <path id="ArialMT-70" d="M 422 -1272 
L 422 3319 
L 934 3319 
L 934 2888 
Q 1116 3141 1344 3267 
Q 1572 3394 1897 3394 
Q 2322 3394 2647 3175 
Q 2972 2956 3137 2557 
Q 3303 2159 3303 1684 
Q 3303 1175 3120 767 
Q 2938 359 2589 142 
Q 2241 -75 1856 -75 
Q 1575 -75 1351 44 
Q 1128 163 984 344 
L 984 -1272 
L 422 -1272 
z
M 931 1641 
Q 931 1000 1190 694 
Q 1450 388 1819 388 
Q 2194 388 2461 705 
Q 2728 1022 2728 1688 
Q 2728 2322 2467 2637 
Q 2206 2953 1844 2953 
Q 1484 2953 1207 2617 
Q 931 2281 931 1641 
z
" transform="scale(0.015625)"/>
       <path id="ArialMT-63" d="M 2588 1216 
L 3141 1144 
Q 3050 572 2676 248 
Q 2303 -75 1759 -75 
Q 1078 -75 664 370 
Q 250 816 250 1647 
Q 250 2184 428 2587 
Q 606 2991 970 3192 
Q 1334 3394 1763 3394 
Q 2303 3394 2647 3120 
Q 2991 2847 3088 2344 
L 2541 2259 
Q 2463 2594 2264 2762 
Q 2066 2931 1784 2931 
Q 1359 2931 1093 2626 
Q 828 2322 828 1663 
Q 828 994 1084 691 
Q 1341 388 1753 388 
Q 2084 388 2306 591 
Q 2528 794 2588 1216 
z
" transform="scale(0.015625)"/>
       <path id="ArialMT-6c" d="M 409 0 
L 409 4581 
L 972 4581 
L 972 0 
L 409 0 
z
" transform="scale(0.015625)"/>
      </defs>
      <use xlink:href="#ArialMT-20"/>
      <use xlink:href="#ArialMT-70" x="27.783203"/>
      <use xlink:href="#ArialMT-65" x="83.398438"/>
      <use xlink:href="#ArialMT-72" x="139.013672"/>
      <use xlink:href="#ArialMT-20" x="172.314453"/>
      <use xlink:href="#ArialMT-63" x="200.097656"/>
      <use xlink:href="#ArialMT-65" x="250.097656"/>
      <use xlink:href="#ArialMT-6c" x="305.712891"/>
      <use xlink:href="#ArialMT-6c" x="327.929688"/>
     </g>
    </g>
   </g>
   <g id="LineCollection_1">
    <path d="M 116.234455 211.725173 
L 116.234455 191.804993 
" clip-path="url(#p20eb4e9899)" style="fill: none; stroke: #000000; stroke-width: 1.5"/>
    <path d="M 138.564782 158.660811 
L 138.564782 139.638626 
" clip-path="url(#p20eb4e9899)" style="fill: none; stroke: #000000; stroke-width: 1.5"/>
    <path d="M 183.225436 181.262112 
L 183.225436 159.971759 
" clip-path="url(#p20eb4e9899)" style="fill: none; stroke: #000000; stroke-width: 1.5"/>
    <path d="M 395.363545 145.371911 
L 395.363545 117.521756 
" clip-path="url(#p20eb4e9899)" style="fill: none; stroke: #000000; stroke-width: 1.5"/>
   </g>
   <g id="line2d_11">
    <defs>
     <path id="m6a828f9820" d="M 5 0 
L -5 -0 
" style="stroke: #000000"/>
    </defs>
    <g clip-path="url(#p20eb4e9899)">
     <use xlink:href="#m6a828f9820" x="116.234455" y="211.725173" style="stroke: #000000"/>
     <use xlink:href="#m6a828f9820" x="138.564782" y="158.660811" style="stroke: #000000"/>
     <use xlink:href="#m6a828f9820" x="183.225436" y="181.262112" style="stroke: #000000"/>
     <use xlink:href="#m6a828f9820" x="395.363545" y="145.371911" style="stroke: #000000"/>
    </g>
   </g>
   <g id="line2d_12">
    <g clip-path="url(#p20eb4e9899)">
     <use xlink:href="#m6a828f9820" x="116.234455" y="191.804993" style="stroke: #000000"/>
     <use xlink:href="#m6a828f9820" x="138.564782" y="139.638626" style="stroke: #000000"/>
     <use xlink:href="#m6a828f9820" x="183.225436" y="159.971759" style="stroke: #000000"/>
     <use xlink:href="#m6a828f9820" x="395.363545" y="117.521756" style="stroke: #000000"/>
    </g>
   </g>
   <g id="LineCollection_2">
    <path d="M 116.234455 192.56301 
L 116.234455 171.156371 
" clip-path="url(#p20eb4e9899)" style="fill: none; stroke: #ff0000; stroke-width: 1.5"/>
    <path d="M 138.564782 146.87358 
L 138.564782 120.195917 
" clip-path="url(#p20eb4e9899)" style="fill: none; stroke: #ff0000; stroke-width: 1.5"/>
    <path d="M 183.225436 122.245584 
L 183.225436 92.593325 
" clip-path="url(#p20eb4e9899)" style="fill: none; stroke: #ff0000; stroke-width: 1.5"/>
    <path d="M 395.363545 66.416638 
L 395.363545 36.62864 
" clip-path="url(#p20eb4e9899)" style="fill: none; stroke: #ff0000; stroke-width: 1.5"/>
   </g>
   <g id="line2d_13">
    <defs>
     <path id="m73aa036d8b" d="M 5 0 
L -5 -0 
" style="stroke: #ff0000"/>
    </defs>
    <g clip-path="url(#p20eb4e9899)">
     <use xlink:href="#m73aa036d8b" x="116.234455" y="192.56301" style="fill: #ff0000; stroke: #ff0000"/>
     <use xlink:href="#m73aa036d8b" x="138.564782" y="146.87358" style="fill: #ff0000; stroke: #ff0000"/>
     <use xlink:href="#m73aa036d8b" x="183.225436" y="122.245584" style="fill: #ff0000; stroke: #ff0000"/>
     <use xlink:href="#m73aa036d8b" x="395.363545" y="66.416638" style="fill: #ff0000; stroke: #ff0000"/>
    </g>
   </g>
   <g id="line2d_14">
    <g clip-path="url(#p20eb4e9899)">
     <use xlink:href="#m73aa036d8b" x="116.234455" y="171.156371" style="fill: #ff0000; stroke: #ff0000"/>
     <use xlink:href="#m73aa036d8b" x="138.564782" y="120.195917" style="fill: #ff0000; stroke: #ff0000"/>
     <use xlink:href="#m73aa036d8b" x="183.225436" y="92.593325" style="fill: #ff0000; stroke: #ff0000"/>
     <use xlink:href="#m73aa036d8b" x="395.363545" y="36.62864" style="fill: #ff0000; stroke: #ff0000"/>
    </g>
   </g>
   <g id="line2d_15">
    <path d="M 116.234455 201.765083 
L 138.564782 149.149718 
L 183.225436 170.616936 
L 395.363545 131.446833 
" clip-path="url(#p20eb4e9899)" style="fill: none; stroke: #000000; stroke-width: 1.5; stroke-linecap: square"/>
    <defs>
     <path id="m4a897e20d9" d="M 0 3 
C 0.795609 3 1.55874 2.683901 2.12132 2.12132 
C 2.683901 1.55874 3 0.795609 3 0 
C 3 -0.795609 2.683901 -1.55874 2.12132 -2.12132 
C 1.55874 -2.683901 0.795609 -3 0 -3 
C -0.795609 -3 -1.55874 -2.683901 -2.12132 -2.12132 
C -2.683901 -1.55874 -3 -0.795609 -3 0 
C -3 0.795609 -2.683901 1.55874 -2.12132 2.12132 
C -1.55874 2.683901 -0.795609 3 0 3 
z
" style="stroke: #000000"/>
    </defs>
    <g clip-path="url(#p20eb4e9899)">
     <use xlink:href="#m4a897e20d9" x="116.234455" y="201.765083" style="stroke: #000000"/>
     <use xlink:href="#m4a897e20d9" x="138.564782" y="149.149718" style="stroke: #000000"/>
     <use xlink:href="#m4a897e20d9" x="183.225436" y="170.616936" style="stroke: #000000"/>
     <use xlink:href="#m4a897e20d9" x="395.363545" y="131.446833" style="stroke: #000000"/>
    </g>
   </g>
   <g id="line2d_16">
    <path d="M 116.234455 181.85969 
L 138.564782 133.534749 
L 183.225436 107.419454 
L 395.363545 51.522639 
" clip-path="url(#p20eb4e9899)" style="fill: none; stroke: #ff0000; stroke-width: 1.5; stroke-linecap: square"/>
    <defs>
     <path id="m38905fd11d" d="M 0 3 
C 0.795609 3 1.55874 2.683901 2.12132 2.12132 
C 2.683901 1.55874 3 0.795609 3 0 
C 3 -0.795609 2.683901 -1.55874 2.12132 -2.12132 
C 1.55874 -2.683901 0.795609 -3 0 -3 
C -0.795609 -3 -1.55874 -2.683901 -2.12132 -2.12132 
C -2.683901 -1.55874 -3 -0.795609 -3 0 
C -3 0.795609 -2.683901 1.55874 -2.12132 2.12132 
C -1.55874 2.683901 -0.795609 3 0 3 
z
" style="stroke: #ff0000"/>
    </defs>
    <g clip-path="url(#p20eb4e9899)">
     <use xlink:href="#m38905fd11d" x="116.234455" y="181.85969" style="fill: #ff0000; stroke: #ff0000"/>
     <use xlink:href="#m38905fd11d" x="138.564782" y="133.534749" style="fill: #ff0000; stroke: #ff0000"/>
     <use xlink:href="#m38905fd11d" x="183.225436" y="107.419454" style="fill: #ff0000; stroke: #ff0000"/>
     <use xlink:href="#m38905fd11d" x="395.363545" y="51.522639" style="fill: #ff0000; stroke: #ff0000"/>
    </g>
   </g>
   <g id="patch_3">
    <path d="M 102.278 220.48 
L 102.278 27.873813 
" style="fill: none; stroke: #000000; stroke-width: 0.8; stroke-linejoin: miter; stroke-linecap: square"/>
   </g>
   <g id="patch_4">
    <path d="M 409.32 220.48 
L 409.32 27.873813 
" style="fill: none; stroke: #000000; stroke-width: 0.8; stroke-linejoin: miter; stroke-linecap: square"/>
   </g>
   <g id="patch_5">
    <path d="M 102.278 220.48 
L 409.32 220.48 
" style="fill: none; stroke: #000000; stroke-width: 0.8; stroke-linejoin: miter; stroke-linecap: square"/>
   </g>
   <g id="patch_6">
    <path d="M 102.278 27.873813 
L 409.32 27.873813 
" style="fill: none; stroke: #000000; stroke-width: 0.8; stroke-linejoin: miter; stroke-linecap: square"/>
   </g>
   <g id="legend_1">
    <g id="patch_7">
     <path d="M 322.467656 212.98 
L 398.82 212.98 
Q 401.82 212.98 401.82 209.98 
L 401.82 169.044062 
Q 401.82 166.044062 398.82 166.044062 
L 322.467656 166.044062 
Q 319.467656 166.044062 319.467656 169.044062 
L 319.467656 209.98 
Q 319.467656 212.98 322.467656 212.98 
z
" style="fill: #ffffff; opacity: 0.8; stroke: #cccccc; stroke-linejoin: miter"/>
    </g>
    <g id="LineCollection_3">
     <path d="M 340.467656 185.030781 
L 340.467656 170.030781 
" style="fill: none; stroke: #000000; stroke-width: 1.5"/>
    </g>
    <g id="line2d_17">
     <g>
      <use xlink:href="#m6a828f9820" x="340.467656" y="185.030781" style="stroke: #000000"/>
     </g>
    </g>
    <g id="line2d_18">
     <g>
      <use xlink:href="#m6a828f9820" x="340.467656" y="170.030781" style="stroke: #000000"/>
     </g>
    </g>
    <g id="line2d_19">
     <path d="M 325.467656 177.530781 
L 355.467656 177.530781 
" style="fill: none; stroke: #000000; stroke-width: 1.5; stroke-linecap: square"/>
    </g>
    <g id="line2d_20">
     <g>
      <use xlink:href="#m4a897e20d9" x="340.467656" y="177.530781" style="stroke: #000000"/>
     </g>
    </g>
    <g id="text_13">
     <!-- NS -->
     <g transform="translate(367.467656 182.780781) scale(0.15 -0.15)">
      <defs>
       <path id="ArialMT-53" d="M 288 1472 
L 859 1522 
Q 900 1178 1048 958 
Q 1197 738 1509 602 
Q 1822 466 2213 466 
Q 2559 466 2825 569 
Q 3091 672 3220 851 
Q 3350 1031 3350 1244 
Q 3350 1459 3225 1620 
Q 3100 1781 2813 1891 
Q 2628 1963 1997 2114 
Q 1366 2266 1113 2400 
Q 784 2572 623 2826 
Q 463 3081 463 3397 
Q 463 3744 659 4045 
Q 856 4347 1234 4503 
Q 1613 4659 2075 4659 
Q 2584 4659 2973 4495 
Q 3363 4331 3572 4012 
Q 3781 3694 3797 3291 
L 3216 3247 
Q 3169 3681 2898 3903 
Q 2628 4125 2100 4125 
Q 1550 4125 1298 3923 
Q 1047 3722 1047 3438 
Q 1047 3191 1225 3031 
Q 1400 2872 2139 2705 
Q 2878 2538 3153 2413 
Q 3553 2228 3743 1945 
Q 3934 1663 3934 1294 
Q 3934 928 3725 604 
Q 3516 281 3123 101 
Q 2731 -78 2241 -78 
Q 1619 -78 1198 103 
Q 778 284 539 648 
Q 300 1013 288 1472 
z
" transform="scale(0.015625)"/>
      </defs>
      <use xlink:href="#ArialMT-4e"/>
      <use xlink:href="#ArialMT-53" x="72.216797"/>
     </g>
    </g>
    <g id="LineCollection_4">
     <path d="M 340.467656 206.24875 
L 340.467656 191.24875 
" style="fill: none; stroke: #ff0000; stroke-width: 1.5"/>
    </g>
    <g id="line2d_21">
     <g>
      <use xlink:href="#m73aa036d8b" x="340.467656" y="206.24875" style="fill: #ff0000; stroke: #ff0000"/>
     </g>
    </g>
    <g id="line2d_22">
     <g>
      <use xlink:href="#m73aa036d8b" x="340.467656" y="191.24875" style="fill: #ff0000; stroke: #ff0000"/>
     </g>
    </g>
    <g id="line2d_23">
     <path d="M 325.467656 198.74875 
L 355.467656 198.74875 
" style="fill: none; stroke: #ff0000; stroke-width: 1.5; stroke-linecap: square"/>
    </g>
    <g id="line2d_24">
     <g>
      <use xlink:href="#m38905fd11d" x="340.467656" y="198.74875" style="fill: #ff0000; stroke: #ff0000"/>
     </g>
    </g>
    <g id="text_14">
     <!-- LPS -->
     <g transform="translate(367.467656 203.99875) scale(0.15 -0.15)">
      <defs>
       <path id="ArialMT-4c" d="M 469 0 
L 469 4581 
L 1075 4581 
L 1075 541 
L 3331 541 
L 3331 0 
L 469 0 
z
" transform="scale(0.015625)"/>
       <path id="ArialMT-50" d="M 494 0 
L 494 4581 
L 2222 4581 
Q 2678 4581 2919 4538 
Q 3256 4481 3484 4323 
Q 3713 4166 3852 3881 
Q 3991 3597 3991 3256 
Q 3991 2672 3619 2267 
Q 3247 1863 2275 1863 
L 1100 1863 
L 1100 0 
L 494 0 
z
M 1100 2403 
L 2284 2403 
Q 2872 2403 3119 2622 
Q 3366 2841 3366 3238 
Q 3366 3525 3220 3729 
Q 3075 3934 2838 4000 
Q 2684 4041 2272 4041 
L 1100 4041 
L 1100 2403 
z
" transform="scale(0.015625)"/>
      </defs>
      <use xlink:href="#ArialMT-4c"/>
      <use xlink:href="#ArialMT-50" x="55.615234"/>
      <use xlink:href="#ArialMT-53" x="122.314453"/>
     </g>
    </g>
   </g>
  </g>
 </g>
 <defs>
  <clipPath id="p20eb4e9899">
   <rect x="102.278" y="27.873813" width="307.042" height="192.606187"/>
  </clipPath>
 </defs>
</svg>
